<svg width="186" height="228" viewBox="0 0 186 228" fill="none" xmlns="http://www.w3.org/2000/svg">
<path opacity="0.22" d="M90.6369 148.141C131.545 148.141 164.707 114.978 164.707 74.0704C164.707 33.1625 131.545 0 90.6369 0C49.7289 0 16.5664 33.1625 16.5664 74.0704C16.5664 114.978 49.7289 148.141 90.6369 148.141Z" fill="white"/>
<path opacity="0.3" d="M90.637 123.145C117.74 123.145 139.712 101.174 139.712 74.0705C139.712 46.9672 117.74 24.9957 90.637 24.9957C63.5338 24.9957 41.5623 46.9672 41.5623 74.0705C41.5623 101.174 63.5338 123.145 90.637 123.145Z" fill="white"/>
<path opacity="0.5" d="M90.6362 106.67C108.64 106.67 123.236 92.0746 123.236 74.0705C123.236 56.0663 108.64 41.4711 90.6362 41.4711C72.6321 41.4711 58.0369 56.0663 58.0369 74.0705C58.0369 92.0746 72.6321 106.67 90.6362 106.67Z" fill="white"/>
<path d="M37.2471 181.708L41.5735 173.986L132.238 112.121L136.005 118.083L37.2471 181.708Z" fill="#E6E7E8"/>
<path d="M153.04 108.636L137.641 118.384C136.649 119.021 135.451 119.257 134.291 119.043C133.132 118.829 132.097 118.181 131.399 117.231C130.7 116.281 130.389 115.101 130.529 113.93C130.669 112.76 131.251 111.686 132.154 110.929C132.315 110.783 132.489 110.652 132.673 110.537L148.07 100.789C148.926 100.243 149.938 99.9928 150.95 100.078C151.962 100.162 152.918 100.577 153.672 101.258C154.425 101.938 154.935 102.848 155.121 103.846C155.308 104.844 155.162 105.876 154.705 106.783C154.512 107.181 154.259 107.546 153.954 107.865C153.683 108.16 153.376 108.419 153.04 108.636Z" fill="#353635"/>
<path d="M153.95 107.873L143.764 103.506L145.097 102.657L154.691 106.781C154.503 107.182 154.253 107.551 153.95 107.873Z" fill="#FCB91F"/>
<path d="M151.577 109.56L150.225 110.412L139.874 105.972L141.226 105.118L151.577 109.56Z" fill="#FCB91F"/>
<path d="M147.69 112.021L146.338 112.865L135.984 108.441L137.336 107.584L147.69 112.021Z" fill="#FCB91F"/>
<path d="M143.788 114.493L142.436 115.339L132.15 110.923C132.314 110.78 132.488 110.65 132.672 110.534L133.44 110.05L143.788 114.493Z" fill="#FCB91F"/>
<path d="M128.51 105.226L142.463 126.782L138.601 129.229L124.649 107.67L128.51 105.226Z" fill="#353635"/>
<path d="M148.502 186.708L144.798 178.666L59.3514 109.76L55.1196 115.401L148.502 186.708Z" fill="#E6E7E8"/>
<path d="M38.9039 104.626L53.4757 115.571C54.4135 116.287 55.5886 116.618 56.7619 116.497C57.9352 116.377 59.0185 115.814 59.7913 114.923C60.5641 114.032 60.9684 112.88 60.9218 111.701C60.8753 110.523 60.3814 109.406 59.5407 108.579C59.3922 108.42 59.2293 108.275 59.054 108.146L44.4849 97.2004C43.6749 96.588 42.6863 96.2583 41.6709 96.2621C40.6555 96.2659 39.6694 96.6029 38.8639 97.2213C38.0585 97.8397 37.4784 98.7053 37.2125 99.6854C36.9467 100.665 37.0099 101.706 37.3924 102.646C37.5517 103.06 37.7742 103.447 38.0521 103.793C38.2987 104.106 38.585 104.386 38.9039 104.626Z" fill="#353635"/>
<path d="M38.0577 103.793L48.56 100.253L47.2972 99.3015L37.4033 102.646C37.5596 103.061 37.7805 103.448 38.0577 103.793Z" fill="#FCB91F"/>
<path d="M40.2891 105.661L41.5599 106.621L52.2407 103.022L50.9644 102.062L40.2891 105.661Z" fill="#FCB91F"/>
<path d="M43.9663 108.427L45.2426 109.374L55.9153 105.794L54.639 104.831L43.9663 108.427Z" fill="#FCB91F"/>
<path d="M47.6567 111.202L48.9222 112.154L59.5408 108.573C59.3899 108.417 59.2262 108.273 59.0514 108.143L58.324 107.603L47.6567 111.202Z" fill="#FCB91F"/>
<path d="M63.6296 103.187L48.0005 123.559L51.6536 126.306L67.2827 105.929L63.6296 103.187Z" fill="#353635"/>
<path d="M166.257 149.772L160.617 147.77C159.739 147.459 158.774 147.918 158.463 148.796C158.151 149.674 158.61 150.639 159.489 150.951L165.128 152.952C166.006 153.264 166.971 152.804 167.282 151.926C167.594 151.048 167.135 150.083 166.257 149.772Z" fill="#0F2336"/>
<path d="M160.727 150.218C162.639 151.875 165.624 153.781 169.285 153.854C169.791 153.868 170.287 154.008 170.726 154.261C171.165 154.514 171.534 154.872 171.8 155.304C172.927 157.124 173.022 160.125 163.044 161.477C163.044 161.477 160.34 161.961 154.756 157.84C154.418 157.591 154.134 157.277 153.918 156.916C153.703 156.556 153.561 156.156 153.502 155.74C153.443 155.325 153.467 154.901 153.572 154.495C153.678 154.088 153.864 153.707 154.118 153.373L156.165 150.699C156.425 150.357 156.753 150.072 157.127 149.861C157.501 149.65 157.915 149.518 158.342 149.473C158.769 149.428 159.201 149.471 159.611 149.599C160.021 149.727 160.401 149.937 160.727 150.218Z" fill="#0F2336"/>
<path d="M115.732 114.392L159.907 146.905C159.907 146.905 158.555 153.911 152.672 156.969L105.222 130.308L115.732 114.392Z" fill="#091D28"/>
<path d="M83.7825 131.206L36.1977 158.486C36.1977 158.486 30.3381 154.414 29.9109 147.803L73.4668 115.163L83.7825 131.206Z" fill="#091D28"/>
<path d="M68.869 106.362L65.9216 171.257H121.259H122.619V153.384L121.259 109.933L68.869 106.362Z" fill="#0F2336"/>
<path d="M24.6033 153.838L30.2426 151.837C31.1208 151.525 31.5801 150.561 31.2684 149.682C30.9567 148.804 29.9922 148.345 29.114 148.657L23.4747 150.658C22.5965 150.97 22.1372 151.934 22.4489 152.813C22.7606 153.691 23.7251 154.15 24.6033 153.838Z" fill="#0F2336"/>
<path d="M29.0315 151.105C27.1197 152.762 24.1372 154.668 20.476 154.741C19.9695 154.755 19.4744 154.895 19.0354 155.148C18.5964 155.401 18.2273 155.759 17.9613 156.191C16.8311 158.011 16.7364 161.012 26.7141 162.367C26.7141 162.367 29.4181 162.848 35.0019 158.73C35.3398 158.48 35.6248 158.166 35.8402 157.805C36.0556 157.444 36.197 157.044 36.2564 156.628C36.3158 156.213 36.2919 155.789 36.1861 155.382C36.0803 154.976 35.8946 154.594 35.64 154.26L33.5823 151.586C33.322 151.246 32.9952 150.962 32.6218 150.753C32.2484 150.543 31.8362 150.412 31.4103 150.367C30.9845 150.322 30.554 150.364 30.145 150.491C29.736 150.618 29.3571 150.826 29.0315 151.105Z" fill="#0F2336"/>
<path d="M93.9001 189.542C94.1214 189.267 94.3977 189.041 94.7113 188.879C98.9241 186.716 129.863 170.795 136.526 166.498C136.899 166.258 137.194 166.055 137.405 165.89C141.655 162.607 138.194 141.013 119.902 148.23L119.677 148.325C117.487 149.342 83.9061 165.09 76.6838 177.99L76.5756 178.166C75.8401 179.302 67.5335 192.449 73.4552 199.292C73.9911 199.897 74.702 200.319 75.4891 200.5C76.2762 200.681 77.1003 200.613 77.8465 200.304C81.5834 198.776 89.2844 195.174 93.9001 189.542Z" fill="#091D28"/>
<path d="M67.5105 150.434L120.092 151.897C120.863 151.78 121.641 151.718 122.42 151.71L122.859 150.061C120.831 149.98 122.588 149.736 122.642 149.547L122.396 143.988C122.347 143.798 122.561 142.814 121.974 142.887L67.7323 141.486C67.6919 141.487 67.6521 141.496 67.6151 141.512C67.5781 141.528 67.5447 141.551 67.5168 141.581C67.4889 141.61 67.467 141.644 67.4525 141.682C67.438 141.72 67.431 141.76 67.4321 141.8L67.305 147.021L67.2293 150.104C67.226 150.144 67.2306 150.185 67.243 150.223C67.2553 150.261 67.2752 150.297 67.3013 150.327C67.3274 150.358 67.3594 150.383 67.3953 150.402C67.4312 150.42 67.4704 150.431 67.5105 150.434Z" fill="#091D28"/>
<path d="M4.85492 134.616L4.64941 164.357" stroke="white" stroke-width="1.89" stroke-miterlimit="10" stroke-linecap="round"/>
<path d="M8.47045 123.937L8.36499 139.196" stroke="white" stroke-width="1.89" stroke-miterlimit="10" stroke-linecap="round"/>
<path d="M2 177.769L2.70033 225.613" stroke="white" stroke-width="3.49" stroke-miterlimit="10" stroke-linecap="round"/>
<path d="M9.23535 160.728L9.59769 185.275" stroke="white" stroke-width="3.49" stroke-miterlimit="10" stroke-linecap="round"/>
<path d="M178.184 119.341L178.493 150.088" stroke="white" stroke-width="2.18" stroke-miterlimit="10" stroke-linecap="round"/>
<path d="M182.641 108.371L182.797 124.146" stroke="white" stroke-width="2.18" stroke-miterlimit="10" stroke-linecap="round"/>
<path d="M176.894 161.92L177.551 206.666" stroke="white" stroke-width="3.26" stroke-miterlimit="10" stroke-linecap="round"/>
<path d="M183.662 145.983L184 168.94" stroke="white" stroke-width="3.26" stroke-miterlimit="10" stroke-linecap="round"/>
<path d="M123.234 119.757C123.264 120.104 123.275 120.453 123.266 120.801C123.242 121.634 122.328 122.299 121.219 122.304L68.9349 122.54C68.0885 122.54 67.3963 122.037 67.3882 121.401L67.5153 120.436L123.234 119.757Z" fill="#091D28"/>
<path opacity="0.2" d="M131.353 67.5214L103.55 67.8189C103.35 67.821 103.152 67.7838 102.967 67.7092C102.781 67.6347 102.612 67.5244 102.469 67.3845C102.326 67.2446 102.212 67.078 102.134 66.8941C102.055 66.7102 102.014 66.5127 102.012 66.3128C102.01 66.113 102.047 65.9147 102.122 65.7294C102.196 65.544 102.306 65.3751 102.446 65.2325C102.586 65.0898 102.753 64.9762 102.937 64.898C103.121 64.8198 103.318 64.7787 103.518 64.7769L131.32 64.493C131.724 64.4894 132.112 64.6459 132.401 64.9282C132.689 65.2105 132.854 65.5956 132.859 65.9991C132.858 66.3998 132.7 66.7842 132.418 67.0691C132.136 67.354 131.754 67.5165 131.353 67.5214Z" fill="white"/>
<path d="M96.9455 189.074C96.6838 188.754 96.36 188.49 95.9937 188.298C91.4726 185.978 60.8715 170.23 54.2603 165.96C53.9407 165.798 53.6442 165.593 53.3788 165.352C47.668 158.013 52.5838 140.51 70.8304 147.67C70.9439 147.714 71.0521 147.762 71.1629 147.814C73.7912 149.036 106.856 164.611 114.092 177.412C114.14 177.498 114.189 177.582 114.246 177.666C115.016 178.864 121.298 188.928 118.926 195.961C118.683 196.676 118.294 197.332 117.783 197.888C117.273 198.444 116.653 198.888 115.961 199.191C115.27 199.495 114.524 199.652 113.769 199.651C113.014 199.651 112.268 199.494 111.577 199.19C107.567 197.437 101.069 194.049 96.9455 189.074Z" fill="#0F2336"/>
<path d="M77.7304 188.176C77.7304 188.176 73.3094 194.455 75.4428 197.884C75.4428 197.884 79.5475 199.49 83.7441 195.044C83.7441 195.044 84.6283 189.455 77.7304 188.176Z" fill="#0F2336"/>
<path d="M102.074 191.929C102.074 191.929 106.276 196.334 111.401 197.256C111.401 197.256 116.727 195.926 114.167 188.547C114.161 188.547 105.252 180.759 102.074 191.929Z" fill="#091D28"/>
<path d="M134.741 54.088L71.1185 54.7288C68.6736 54.7488 66.2612 55.2915 64.0432 56.3203C61.8251 57.3491 59.8528 58.8402 58.2583 60.6938C57.9282 61.0668 57.6177 61.4567 57.3281 61.862C55.1487 64.8526 56.4358 68.4597 56.4683 72.1615L54.0698 75.1359L54.3673 104.169C54.3878 106.433 54.8541 108.671 55.7397 110.756C56.6252 112.84 57.9126 114.729 59.5284 116.316C61.1442 117.902 63.0567 119.155 65.1567 120.003C67.2566 120.85 69.503 121.276 71.7675 121.255H71.7918L118.171 120.785C120.435 120.763 122.674 120.296 124.758 119.41C126.842 118.524 128.731 117.235 130.317 115.619C131.903 114.002 133.156 112.089 134.002 109.988C134.849 107.888 135.274 105.641 135.252 103.376V103.344L134.741 54.088ZM124.195 88.5287C124.199 89.1133 124.15 89.6971 124.049 90.2728C123.66 92.3716 122.555 94.2705 120.923 95.6454C119.29 97.0203 117.231 97.7859 115.096 97.8115L77.3864 98.1874C75.252 98.2044 73.1779 97.4802 71.5181 96.1384C69.8582 94.7966 68.7154 92.9203 68.2847 90.8298C68.1713 90.2562 68.1115 89.6732 68.1062 89.0885C68.0868 86.65 69.0346 84.3032 70.7421 82.5622C72.4496 80.8213 74.7776 79.8281 77.216 79.8002L114.902 79.4217C117.338 79.3979 119.685 80.3427 121.426 82.0483C123.166 83.754 124.159 86.081 124.184 88.5179L124.195 88.5287Z" fill="#0F2336"/>
<path d="M126.053 77.8155H64.6477V100.351H126.053V77.8155Z" fill="#0F2336"/>
<path d="M63.8481 89.0343C63.8481 89.661 63.9051 90.2864 64.0185 90.9028C64.4542 93.1458 65.6546 95.1682 67.4151 96.6248C69.1755 98.0815 71.3868 98.8822 73.6718 98.8904L114.023 98.9526C116.309 98.9555 118.525 98.1631 120.291 96.7112C122.057 95.2592 123.262 93.2382 123.701 90.9947C123.817 90.3795 123.877 89.755 123.879 89.129C123.879 86.5206 122.844 84.0189 121.002 82.1719C119.16 80.325 116.662 79.2835 114.053 79.2756L73.7015 79.2107C72.4094 79.2086 71.1296 79.461 69.9351 79.9536C68.7406 80.4462 67.6549 81.1692 66.7399 82.0814C65.8249 82.9937 65.0985 84.0772 64.6024 85.2702C64.1062 86.4632 63.8499 87.7423 63.8481 89.0343Z" fill="#F0977E"/>
<path d="M64.0188 90.9028C64.4545 93.1458 65.6549 95.1682 67.4154 96.6248C69.1758 98.0815 71.3871 98.8822 73.6721 98.8904L114.024 98.9526C116.31 98.9555 118.526 98.1631 120.291 96.7112C122.057 95.2592 123.263 93.2382 123.701 90.9947C123.266 88.7517 122.065 86.7293 120.305 85.2727C118.544 83.816 116.333 83.0153 114.048 83.0071L73.6964 82.9422C71.4105 82.9415 69.1955 83.735 67.4301 85.1872C65.6648 86.6393 64.4589 88.6597 64.0188 90.9028Z" fill="#F9C197"/>
<path d="M37.7068 54.9018L48.6552 48.6854L60.853 70.1713L52.4679 74.933L50.7211 73.2025L48.4281 73.7838L37.7068 54.9018Z" fill="#F26E26"/>
<path d="M32.6794 59.4164L30.5098 71.8096L54.8354 76.0683L57.005 63.6751L32.6794 59.4164Z" fill="#F26E26"/>
<path d="M134.999 62.0566L135.134 75.2683L53.4492 76.0795L53.4194 73.143C53.3748 69.4377 54.5418 65.8192 56.7427 62.8381L134.999 62.0566Z" fill="#F26E26"/>
<path d="M77.5012 92.8091C77.5012 92.8091 82.8037 85.949 89.7179 92.8091" stroke="#0F2336" stroke-width="3" stroke-miterlimit="10" stroke-linecap="round"/>
<path d="M99.29 92.8091C99.29 92.8091 104.593 85.949 111.507 92.8091" stroke="#0F2336" stroke-width="3" stroke-miterlimit="10" stroke-linecap="round"/>
<path opacity="0.2" d="M132.766 67.0401L104.969 67.3375C104.769 67.3393 104.57 67.3017 104.385 67.2268C104.2 67.152 104.031 67.0413 103.888 66.9012C103.745 66.7611 103.632 66.5943 103.554 66.4103C103.476 66.2262 103.434 66.0286 103.433 65.8287C103.429 65.4259 103.585 65.038 103.867 64.7502C104.149 64.4623 104.533 64.2978 104.936 64.2928L132.741 64.0224C132.941 64.0206 133.139 64.0583 133.325 64.1331C133.51 64.208 133.679 64.3186 133.822 64.4587C133.964 64.5989 134.078 64.7657 134.156 64.9497C134.234 65.1337 134.275 65.3313 134.277 65.5313C134.272 65.9304 134.111 66.3117 133.829 66.5937C133.546 66.8757 133.165 67.0359 132.766 67.0401Z" fill="white"/>
<path opacity="0.2" d="M100.039 73.1268L86.7167 73.2539C86.5473 73.2564 86.379 73.2254 86.2215 73.1626C86.064 73.0999 85.9205 73.0067 85.7991 72.8884C85.6778 72.7701 85.581 72.6289 85.5144 72.4731C85.4477 72.3172 85.4125 72.1498 85.4107 71.9803C85.4071 71.6379 85.5395 71.3082 85.7787 71.0633C86.018 70.8184 86.3447 70.6785 86.687 70.6742L100.012 70.5472C100.355 70.5436 100.684 70.6759 100.929 70.9152C101.174 71.1545 101.314 71.4811 101.318 71.8234C101.321 72.166 101.188 72.4958 100.949 72.7406C100.709 72.9854 100.382 73.1252 100.039 73.1295V73.1268Z" fill="white"/>
</svg>
